<svg width="714" height="304" viewBox="0 0 714 304" fill="none" xmlns="http://www.w3.org/2000/svg">
    <path d="M557.216 67.5282C608.288 91.9162 659.36 119.788 688.928 159.854C717.152 199.92 723.872 252.18 695.648 298.343C666.08 343.635 602.912 382.83 530.336 394.153C459.104 404.605 378.464 387.185 269.6 380.217C162.08 372.378 24.992 374.12 3.48802 338.409C-18.016 301.827 74.72 228.663 119.072 165.08C164.768 100.626 159.392 45.7532 199.712 19.6232C238.688 -5.63579 320.672 -3.02278 387.872 9.17122C455.072 21.3652 506.144 43.1402 557.216 67.5282Z" fill="url(#paint0_linear_3_2538)"/>
    <defs>
        <linearGradient id="paint0_linear_3_2538" x1="0.300781" y1="397.413" x2="337.944" y2="-209.037" gradientUnits="userSpaceOnUse">
            <stop offset="0.245" stop-color="#69008E"/>
            <stop offset="1" stop-color="#CD6234"/>
        </linearGradient>
    </defs>
</svg>
