<svg width="558" height="561" viewBox="0 0 558 561" fill="none" xmlns="http://www.w3.org/2000/svg">
    <path d="M554.22 32.7975C567.926 64.8345 536.153 121.307 524.316 160.946C513.102 200.585 522.447 222.848 526.808 267.374C531.169 311.9 530.546 378.689 498.15 404.21C465.754 429.731 400.962 413.984 350.499 387.92C300.036 361.856 262.656 326.018 248.327 287.465C233.998 248.369 242.72 206.558 257.049 170.72C272.001 135.425 292.56 106.103 321.841 76.2375C350.499 46.9155 386.633 17.0505 434.604 5.10453C481.952 -6.29848 540.514 0.760526 554.22 32.7975Z" fill="url(#paint0_linear_3_2528)"/>
    <defs>
        <linearGradient id="paint0_linear_3_2528" x1="241" y1="417.172" x2="642.783" y2="112.262" gradientUnits="userSpaceOnUse">
            <stop offset="0.215" stop-color="#560D70"/>
            <stop offset="1" stop-color="#D65222"/>
        </linearGradient>
    </defs>
</svg>
