<svg width="840" height="1061" viewBox="0 0 840 1061" fill="none" xmlns="http://www.w3.org/2000/svg">
<path d="M610.156 128.748C681.58 182.228 753.004 235.708 795.412 315.928C838.936 394.811 852.328 500.434 824.428 584.665C797.644 670.233 730.684 735.746 673.768 806.607C615.736 877.468 568.864 953.677 499.672 1004.48C431.596 1055.29 342.316 1082.03 280.936 1040.58C219.556 999.135 184.96 889.501 142.552 803.933C99.0281 718.365 47.6921 655.526 22.0241 576.643C-4.75993 496.423 -5.87593 400.159 16.4441 305.232C37.6481 210.305 83.4041 116.715 150.364 61.898C218.44 7.08096 307.72 -10.3001 388.072 7.08093C468.424 24.4619 538.732 75.2679 610.156 128.748Z" fill="url(#paint0_linear_52_1208)"/>
<defs>
<linearGradient id="paint0_linear_52_1208" x1="0.734375" y1="1060.95" x2="1032.46" y2="245.272" gradientUnits="userSpaceOnUse">
<stop stop-color="#7803A4"/>
<stop offset="1" stop-color="#110747"/>
</linearGradient>
</defs>
</svg>
