<svg width="673" height="583" viewBox="0 0 673 583" fill="none" xmlns="http://www.w3.org/2000/svg">
<path d="M565.587 61.9759C614.949 109.058 630.537 184.868 648.723 262.274C666.909 340.478 687.693 420.278 655.651 471.35C623.609 523.22 537.875 546.362 458.203 563.12C378.531 580.676 305.787 591.848 247.765 570.302C190.609 547.958 149.041 492.896 100.545 433.046C52.0493 372.398 -2.50868 307.76 0.0893247 244.718C2.68732 181.676 62.4413 120.23 129.989 76.3399C197.537 31.6519 272.879 5.31792 353.417 0.529916C433.089 -3.46008 516.225 14.8939 565.587 61.9759Z" fill="url(#paint0_linear_52_1215)"/>
<defs>
<linearGradient id="paint0_linear_52_1215" x1="0" y1="582.144" x2="576.156" y2="-83.2777" gradientUnits="userSpaceOnUse">
<stop stop-color="#FF7A00"/>
<stop offset="1" stop-color="#0500FF"/>
</linearGradient>
</defs>
</svg>
