<svg width="622" height="833" viewBox="0 0 622 833" fill="none" xmlns="http://www.w3.org/2000/svg">
    <path d="M737.65 8.63194C853.9 29.8479 973.25 98.7999 1013.55 194.272C1053.85 288.418 1016.65 407.758 963.95 516.49C912.8 626.548 847.7 724.672 750.05 780.364C652.4 834.73 522.2 846.664 419.9 814.84C316.05 781.69 240.1 707.434 175 642.46C109.9 578.812 54.1 525.772 24.65 463.45C-3.25 399.802 -4.8 326.872 9.15 247.312C23.1 169.078 52.55 84.2139 119.2 48.4119C185.85 13.9359 288.15 28.5219 398.2 21.8919C506.7 15.2619 621.4 -12.5841 737.65 8.63194Z" fill="url(#paint0_linear_3_2532)"/>
    <defs>
        <linearGradient id="paint0_linear_3_2532" x1="0.543091" y1="832.263" x2="813.305" y2="-174.593" gradientUnits="userSpaceOnUse">
            <stop stop-color="#130657"/>
            <stop offset="1" stop-color="#6C049C"/>
        </linearGradient>
    </defs>
</svg>
