<svg width="506" height="385" viewBox="0 0 506 385" fill="none" xmlns="http://www.w3.org/2000/svg">
<path d="M287.106 124.385C317.98 148.594 369.676 142.964 417.064 160.98C463.734 178.433 506.096 220.658 505.378 260.631C505.378 301.167 463.016 340.014 411.32 360.845C359.624 381.113 299.312 383.365 238.282 384.491C176.534 385.054 114.786 385.054 106.17 353.526C98.2719 321.998 144.224 258.942 126.274 212.776C108.324 167.173 27.1899 137.897 6.36793 104.68C-14.4541 71.4631 25.7539 33.7421 74.5779 14.6001C123.402 -5.1049 180.842 -6.2309 214.588 20.2301C247.616 46.1281 256.95 100.739 287.106 124.385Z" fill="url(#paint0_linear_52_1213)"/>
<defs>
<linearGradient id="paint0_linear_52_1213" x1="291.5" y1="63.5" x2="504.732" y2="293.336" gradientUnits="userSpaceOnUse">
<stop stop-color="#332170"/>
<stop offset="1" stop-color="#C55E3B"/>
</linearGradient>
</defs>
</svg>
