<svg width="1001" height="954" viewBox="0 0 1001 954" fill="none" xmlns="http://www.w3.org/2000/svg">
    <path d="M771.156 21.7479C842.58 75.2279 914.004 128.708 956.412 208.928C999.936 287.811 1013.33 393.434 985.428 477.665C958.644 563.233 891.684 628.746 834.768 699.607C776.736 770.468 729.864 846.677 660.672 897.483C592.596 948.289 503.316 975.029 441.936 933.582C380.556 892.135 345.96 782.501 303.552 696.933C260.028 611.365 208.692 548.526 183.024 469.643C156.24 389.423 155.124 293.159 177.444 198.232C198.648 103.305 244.404 9.71495 311.364 -45.102C379.44 -99.919 468.72 -117.3 549.072 -99.9191C629.424 -82.5381 699.732 -31.7321 771.156 21.7479Z" fill="url(#paint0_linear_36_2)"/>
    <defs>
        <linearGradient id="paint0_linear_36_2" x1="161.734" y1="953.945" x2="1193.46" y2="138.272" gradientUnits="userSpaceOnUse">
            <stop stop-color="#7803A4"/>
            <stop offset="1" stop-color="#110747"/>
        </linearGradient>
    </defs>
</svg>
