<svg width="1007" height="377" viewBox="0 0 1007 377" fill="none" xmlns="http://www.w3.org/2000/svg">
    <g clip-path="url(#clip0_3_2533)">
        <path d="M696.106 36.3851C726.98 60.5941 778.676 54.9641 826.064 72.9801C872.734 90.4331 915.096 132.658 914.378 172.631C914.378 213.167 872.016 252.014 820.32 272.845C768.624 293.113 708.312 295.365 647.282 296.491C585.534 297.054 523.786 297.054 515.17 265.526C507.272 233.998 553.224 170.942 535.274 124.776C517.324 79.1731 436.19 49.8971 415.368 16.6801C394.546 -16.5369 434.754 -54.2579 483.578 -73.3999C532.402 -93.1049 589.842 -94.2309 623.588 -67.7699C656.616 -41.8719 665.95 12.7391 696.106 36.3851Z" fill="url(#paint0_linear_3_2533)"/>
    </g>
    <defs>
        <linearGradient id="paint0_linear_3_2533" x1="700.5" y1="-24.5" x2="913.732" y2="205.336" gradientUnits="userSpaceOnUse">
            <stop stop-color="#332170"/>
            <stop offset="1" stop-color="#C55E3B"/>
        </linearGradient>
        <clipPath id="clip0_3_2533">
            <rect width="1007" height="377" fill="white"/>
        </clipPath>
    </defs>
</svg>
