<svg width="317" height="418" viewBox="0 0 317 418" fill="none" xmlns="http://www.w3.org/2000/svg">
<path d="M313.22 32.7975C326.926 64.8345 295.153 121.307 283.316 160.946C272.102 200.585 281.447 222.848 285.808 267.374C290.169 311.9 289.546 378.689 257.15 404.21C224.754 429.731 159.962 413.984 109.499 387.92C59.036 361.856 21.656 326.018 7.32696 287.465C-7.00204 248.369 1.71996 206.558 16.049 170.72C31.001 135.425 51.56 106.103 80.841 76.2375C109.499 46.9155 145.633 17.0505 193.604 5.10453C240.952 -6.29848 299.514 0.760526 313.22 32.7975Z" fill="url(#paint0_linear_52_1209)"/>
<defs>
<linearGradient id="paint0_linear_52_1209" x1="0" y1="417.172" x2="401.783" y2="112.262" gradientUnits="userSpaceOnUse">
<stop offset="0.215" stop-color="#560D70"/>
<stop offset="1" stop-color="#D65222"/>
</linearGradient>
</defs>
</svg>
