<svg width="539" height="444" viewBox="0 0 539 444" fill="none" xmlns="http://www.w3.org/2000/svg">
    <path d="M565.587 -77.0241C614.949 -29.9421 630.537 45.8679 648.723 123.274C666.909 201.478 687.693 281.278 655.651 332.35C623.609 384.22 537.875 407.362 458.203 424.12C378.531 441.676 305.787 452.848 247.765 431.302C190.609 408.958 149.041 353.896 100.545 294.046C52.0493 233.398 -2.50868 168.76 0.0893247 105.718C2.68732 42.6759 62.4413 -18.7701 129.989 -62.6601C197.537 -107.348 272.879 -133.682 353.417 -138.47C433.089 -142.46 516.225 -124.106 565.587 -77.0241Z" fill="url(#paint0_linear_3_2536)"/>
    <defs>
        <linearGradient id="paint0_linear_3_2536" x1="0" y1="443.144" x2="576.156" y2="-222.278" gradientUnits="userSpaceOnUse">
            <stop stop-color="#FF7A00"/>
            <stop offset="1" stop-color="#0500FF"/>
        </linearGradient>
    </defs>
</svg>
