<svg width="1920" height="1114" viewBox="0 0 1920 1114" fill="none" xmlns="http://www.w3.org/2000/svg">
<path opacity="0.37" d="M244.8 259.053C268.659 259.053 288 243.116 288 223.458C288 203.799 268.659 187.863 244.8 187.863C220.941 187.863 201.6 203.799 201.6 223.458C201.6 243.116 220.941 259.053 244.8 259.053Z" fill="#372546"/>
<path opacity="0.28" d="M892.8 841.426C906.718 841.426 918 832.13 918 820.663C918 809.195 906.718 799.899 892.8 799.899C878.883 799.899 867.6 809.195 867.6 820.663C867.6 832.13 878.883 841.426 892.8 841.426Z" fill="#422546"/>
<path opacity="0.86" d="M1209.6 53.3924C1216.23 53.3924 1221.6 48.9656 1221.6 43.5049C1221.6 38.0442 1216.23 33.6174 1209.6 33.6174C1202.97 33.6174 1197.6 38.0442 1197.6 43.5049C1197.6 48.9656 1202.97 53.3924 1209.6 53.3924Z" fill="#91276A"/>
<path opacity="0.31" d="M117.6 957.11C130.855 957.11 141.6 948.256 141.6 937.335C141.6 926.414 130.855 917.56 117.6 917.56C104.345 917.56 93.6 926.414 93.6 937.335C93.6 948.256 104.345 957.11 117.6 957.11Z" fill="#B2474D"/>
<path opacity="0.19" d="M1128 528.981C1143.24 528.981 1155.6 518.8 1155.6 506.24C1155.6 493.68 1143.24 483.499 1128 483.499C1112.76 483.499 1100.4 493.68 1100.4 506.24C1100.4 518.8 1112.76 528.981 1128 528.981Z" fill="#252546"/>
<path opacity="0.29" d="M828 615.991C841.918 615.991 853.2 606.695 853.2 595.228C853.2 583.76 841.918 574.464 828 574.464C814.082 574.464 802.8 583.76 802.8 595.228C802.8 606.695 814.082 615.991 828 615.991Z" fill="#442546"/>
<path opacity="0.92" d="M1048.8 472.623C1066.03 472.623 1080 461.113 1080 446.915C1080 432.717 1066.03 421.208 1048.8 421.208C1031.57 421.208 1017.6 432.717 1017.6 446.915C1017.6 461.113 1031.57 472.623 1048.8 472.623Z" fill="#7C03A7"/>
<path opacity="0.9" d="M552 60.3137C564.592 60.3137 574.8 51.9028 574.8 41.5275C574.8 31.1521 564.592 22.7412 552 22.7412C539.408 22.7412 529.2 31.1521 529.2 41.5275C529.2 51.9028 539.408 60.3137 552 60.3137Z" fill="#252C46"/>
<path d="M1776 809.786C1785.94 809.786 1794 803.146 1794 794.955C1794 786.764 1785.94 780.124 1776 780.124C1766.06 780.124 1758 786.764 1758 794.955C1758 803.146 1766.06 809.786 1776 809.786Z" fill="#41057B"/>
<path opacity="0.5" d="M463.2 456.802C472.478 456.802 480 450.605 480 442.96C480 435.315 472.478 429.117 463.2 429.117C453.922 429.117 446.4 435.315 446.4 442.96C446.4 450.605 453.922 456.802 463.2 456.802Z" fill="#362546"/>
<path opacity="0.44" d="M799.2 1093.56C816.431 1093.56 830.4 1082.05 830.4 1067.85C830.4 1053.65 816.431 1042.14 799.2 1042.14C781.969 1042.14 768 1053.65 768 1067.85C768 1082.05 781.969 1093.56 799.2 1093.56Z" fill="#442546"/>
<path opacity="0.41" d="M1384.8 174.02C1394.08 174.02 1401.6 167.822 1401.6 160.177C1401.6 152.532 1394.08 146.335 1384.8 146.335C1375.52 146.335 1368 152.532 1368 160.177C1368 167.822 1375.52 174.02 1384.8 174.02Z" fill="#892071"/>
<path opacity="0.21" d="M1752 470.645C1761.28 470.645 1768.8 464.447 1768.8 456.802C1768.8 449.157 1761.28 442.96 1752 442.96C1742.72 442.96 1735.2 449.157 1735.2 456.802C1735.2 464.447 1742.72 470.645 1752 470.645Z" fill="#41057B"/>
<path opacity="0.78" d="M1034.4 1068.84C1040.36 1068.84 1045.2 1064.85 1045.2 1059.94C1045.2 1055.03 1040.36 1051.04 1034.4 1051.04C1028.44 1051.04 1023.6 1055.03 1023.6 1059.94C1023.6 1064.85 1028.44 1068.84 1034.4 1068.84Z" fill="#7C03A7"/>
<path opacity="0.51" d="M494.4 398.466C508.318 398.466 519.6 389.17 519.6 377.702C519.6 366.235 508.318 356.939 494.4 356.939C480.482 356.939 469.2 366.235 469.2 377.702C469.2 389.17 480.482 398.466 494.4 398.466Z" fill="#372546"/>
<path opacity="0.86" d="M823.2 342.108C837.78 342.108 849.6 332.369 849.6 320.355C849.6 308.341 837.78 298.603 823.2 298.603C808.62 298.603 796.8 308.341 796.8 320.355C796.8 332.369 808.62 342.108 823.2 342.108Z" fill="#412546"/>
<path opacity="0.94" d="M103.2 803.854C109.165 803.854 114 799.87 114 794.955C114 790.04 109.165 786.056 103.2 786.056C97.2353 786.056 92.4 790.04 92.4 794.955C92.4 799.87 97.2353 803.854 103.2 803.854Z" fill="#B2474D"/>
<path opacity="0.6" d="M868.8 276.85C879.404 276.85 888 269.767 888 261.03C888 252.293 879.404 245.21 868.8 245.21C858.196 245.21 849.6 252.293 849.6 261.03C849.6 269.767 858.196 276.85 868.8 276.85Z" fill="#3B2546"/>
<path opacity="0.35" d="M787.2 919.537C800.455 919.537 811.2 910.684 811.2 899.762C811.2 888.841 800.455 879.987 787.2 879.987C773.945 879.987 763.2 888.841 763.2 899.762C763.2 910.684 773.945 919.537 787.2 919.537Z" fill="#442546"/>
<path opacity="0.3" d="M1183.2 578.419C1194.47 578.419 1203.6 570.893 1203.6 561.61C1203.6 552.327 1194.47 544.801 1183.2 544.801C1171.93 544.801 1162.8 552.327 1162.8 561.61C1162.8 570.893 1171.93 578.419 1183.2 578.419Z" fill="#252E46"/>
<path opacity="0.64" d="M1600.8 994.683C1610.08 994.683 1617.6 988.485 1617.6 980.84C1617.6 973.195 1610.08 966.998 1600.8 966.998C1591.52 966.998 1584 973.195 1584 980.84C1584 988.485 1591.52 994.683 1600.8 994.683Z" fill="#3A0877"/>
<path opacity="0.9" d="M422.4 394.511C433.667 394.511 442.8 386.986 442.8 377.703C442.8 368.419 433.667 360.894 422.4 360.894C411.133 360.894 402 368.419 402 377.703C402 386.986 411.133 394.511 422.4 394.511Z" fill="#342546"/>
<path opacity="0.7" d="M856.8 507.229C869.392 507.229 879.6 498.818 879.6 488.442C879.6 478.067 869.392 469.656 856.8 469.656C844.208 469.656 834 478.067 834 488.442C834 498.818 844.208 507.229 856.8 507.229Z" fill="#432546"/>
<path opacity="0.2" d="M192 554.689C199.29 554.689 205.2 549.819 205.2 543.813C205.2 537.806 199.29 532.936 192 532.936C184.71 532.936 178.8 537.806 178.8 543.813C178.8 549.819 184.71 554.689 192 554.689Z" fill="#B2474D"/>
<path opacity="0.57" d="M1668 611.047C1682.58 611.047 1694.4 601.309 1694.4 589.295C1694.4 577.281 1682.58 567.542 1668 567.542C1653.42 567.542 1641.6 577.281 1641.6 589.295C1641.6 601.309 1653.42 611.047 1668 611.047Z" fill="#90266B"/>
<path opacity="0.13" d="M1680 257.075C1690.6 257.075 1699.2 249.992 1699.2 241.255C1699.2 232.518 1690.6 225.435 1680 225.435C1669.4 225.435 1660.8 232.518 1660.8 241.255C1660.8 249.992 1669.4 257.075 1680 257.075Z" fill="#721C5E"/>
<path opacity="0.46" d="M868.8 225.435C876.753 225.435 883.2 220.123 883.2 213.57C883.2 207.017 876.753 201.705 868.8 201.705C860.847 201.705 854.4 207.017 854.4 213.57C854.4 220.123 860.847 225.435 868.8 225.435Z" fill="#342546"/>
<path opacity="0.42" d="M372 202.694C388.569 202.694 402 191.627 402 177.975C402 164.323 388.569 153.256 372 153.256C355.431 153.256 342 164.323 342 177.975C342 191.627 355.431 202.694 372 202.694Z" fill="#292546"/>
<path d="M1440 256.086C1449.94 256.086 1458 249.446 1458 241.255C1458 233.064 1449.94 226.424 1440 226.424C1430.06 226.424 1422 233.064 1422 241.255C1422 249.446 1430.06 256.086 1440 256.086Z" fill="#260566"/>
<path opacity="0.75" d="M1778.4 517.116C1785.69 517.116 1791.6 512.247 1791.6 506.24C1791.6 500.233 1785.69 495.364 1778.4 495.364C1771.11 495.364 1765.2 500.233 1765.2 506.24C1765.2 512.247 1771.11 517.116 1778.4 517.116Z" fill="#41057B"/>
<path opacity="0.42" d="M103.2 600.171C114.467 600.171 123.6 592.646 123.6 583.362C123.6 574.079 114.467 566.554 103.2 566.554C91.9334 566.554 82.8 574.079 82.8 583.362C82.8 592.646 91.9334 600.171 103.2 600.171Z" fill="#B2474D"/>
<path opacity="0.42" d="M232.8 884.931C242.741 884.931 250.8 878.291 250.8 870.1C250.8 861.909 242.741 855.269 232.8 855.269C222.859 855.269 214.8 861.909 214.8 870.1C214.8 878.291 222.859 884.931 232.8 884.931Z" fill="#B2474D"/>
<path opacity="0.57" d="M1658.4 372.759C1665.69 372.759 1671.6 367.889 1671.6 361.883C1671.6 355.876 1665.69 351.006 1658.4 351.006C1651.11 351.006 1645.2 355.876 1645.2 361.883C1645.2 367.889 1651.11 372.759 1658.4 372.759Z" fill="#A63C57"/>
<path opacity="0.96" d="M230.4 725.742C244.98 725.742 256.8 716.003 256.8 703.99C256.8 691.976 244.98 682.237 230.4 682.237C215.82 682.237 204 691.976 204 703.99C204 716.003 215.82 725.742 230.4 725.742Z" fill="#B2474D"/>
<path opacity="0.32" d="M360 633.789C371.267 633.789 380.4 626.263 380.4 616.98C380.4 607.697 371.267 600.171 360 600.171C348.733 600.171 339.6 607.697 339.6 616.98C339.6 626.263 348.733 633.789 360 633.789Z" fill="#7C03A7"/>
<path opacity="0.2" d="M1452 625.879C1464.59 625.879 1474.8 617.468 1474.8 607.092C1474.8 596.717 1464.59 588.306 1452 588.306C1439.41 588.306 1429.2 596.717 1429.2 607.092C1429.2 617.468 1439.41 625.879 1452 625.879Z" fill="#29096B"/>
<path opacity="0.68" d="M948 1015.45C959.267 1015.45 968.4 1007.92 968.4 998.637C968.4 989.354 959.267 981.829 948 981.829C936.733 981.829 927.6 989.354 927.6 998.637C927.6 1007.92 936.733 1015.45 948 1015.45Z" fill="#3D2546"/>
<path opacity="0.17" d="M1046.4 652.575C1057 652.575 1065.6 645.492 1065.6 636.755C1065.6 628.018 1057 620.935 1046.4 620.935C1035.8 620.935 1027.2 628.018 1027.2 636.755C1027.2 645.492 1035.8 652.575 1046.4 652.575Z" fill="#7C03A7"/>
<path opacity="0.28" d="M554.4 444.937C567.655 444.937 578.4 436.084 578.4 425.162C578.4 414.241 567.655 405.387 554.4 405.387C541.145 405.387 530.4 414.241 530.4 425.162C530.4 436.084 541.145 444.937 554.4 444.937Z" fill="#3A2546"/>
<path opacity="0.67" d="M1212 479.544C1224.59 479.544 1234.8 471.133 1234.8 460.757C1234.8 450.382 1224.59 441.971 1212 441.971C1199.41 441.971 1189.2 450.382 1189.2 460.757C1189.2 471.133 1199.41 479.544 1212 479.544Z" fill="#253246"/>
<path opacity="0.14" d="M1322.4 774.191C1333.67 774.191 1342.8 766.666 1342.8 757.382C1342.8 748.099 1333.67 740.574 1322.4 740.574C1311.13 740.574 1302 748.099 1302 757.382C1302 766.666 1311.13 774.191 1322.4 774.191Z" fill="#200A65"/>
<path opacity="0.71" d="M127.2 440.983C141.78 440.983 153.6 431.244 153.6 419.23C153.6 407.216 141.78 397.478 127.2 397.478C112.62 397.478 100.8 407.216 100.8 419.23C100.8 431.244 112.62 440.983 127.2 440.983Z" fill="#B2474D"/>
<path opacity="0.39" d="M703.2 786.056C722.42 786.056 738 773.219 738 757.383C738 741.547 722.42 728.709 703.2 728.709C683.981 728.709 668.4 741.547 668.4 757.383C668.4 773.219 683.981 786.056 703.2 786.056Z" fill="#432546"/>
<path opacity="0.31" d="M1874.4 844.392C1886.33 844.392 1896 836.424 1896 826.595C1896 816.766 1886.33 808.797 1874.4 808.797C1862.47 808.797 1852.8 816.766 1852.8 826.595C1852.8 836.424 1862.47 844.392 1874.4 844.392Z" fill="#41057B"/>
</svg>
