<svg width="351" height="95" viewBox="0 0 351 95" fill="none" xmlns="http://www.w3.org/2000/svg">
<path d="M25.56 33H36.96C39.92 33 42.5333 33.6 44.8 34.8C47.0667 35.9733 48.8267 37.6267 50.08 39.76C51.3333 41.8667 51.96 44.28 51.96 47C51.96 49.72 51.3333 52.1467 50.08 54.28C48.8267 56.3867 47.0667 58.04 44.8 59.24C42.5333 60.4133 39.92 61 36.96 61H25.56V33ZM36.8 58.44C39.2533 58.44 41.4 57.96 43.24 57C45.08 56.0133 46.5067 54.6667 47.52 52.96C48.5333 51.2267 49.04 49.24 49.04 47C49.04 44.76 48.5333 42.7867 47.52 41.08C46.5067 39.3467 45.08 38 43.24 37.04C41.4 36.0533 39.2533 35.56 36.8 35.56H28.52V58.44H36.8ZM67.0069 58.68C68.3135 58.68 69.5135 58.4533 70.6069 58C71.7269 57.52 72.6735 56.8267 73.4469 55.92L75.0469 57.76C74.1135 58.88 72.9535 59.7333 71.5669 60.32C70.1802 60.9067 68.6469 61.2 66.9669 61.2C64.8069 61.2 62.8869 60.7467 61.2069 59.84C59.5269 58.9067 58.2202 57.6267 57.2869 56C56.3535 54.3733 55.8869 52.5333 55.8869 50.48C55.8869 48.4267 56.3269 46.5867 57.2069 44.96C58.1135 43.3333 59.3535 42.0667 60.9269 41.16C62.5002 40.2533 64.2869 39.8 66.2869 39.8C68.1535 39.8 69.8335 40.2267 71.3269 41.08C72.8469 41.9333 74.0469 43.12 74.9269 44.64C75.8335 46.16 76.3135 47.8933 76.3669 49.84L59.0869 53.2C59.6202 54.9067 60.5802 56.2533 61.9669 57.24C63.3802 58.2 65.0602 58.68 67.0069 58.68ZM66.2869 42.24C64.8202 42.24 63.5002 42.5867 62.3269 43.28C61.1802 43.9467 60.2735 44.8933 59.6069 46.12C58.9669 47.32 58.6469 48.7067 58.6469 50.28C58.6469 50.68 58.6602 50.9733 58.6869 51.16L73.5269 48.28C73.2069 46.52 72.3935 45.08 71.0869 43.96C69.7802 42.8133 68.1802 42.24 66.2869 42.24ZM99.4369 39.96L90.0769 61H87.1569L77.8369 39.96H80.7969L88.6769 57.88L96.6369 39.96H99.4369ZM111.851 58.68C113.157 58.68 114.357 58.4533 115.451 58C116.571 57.52 117.517 56.8267 118.291 55.92L119.891 57.76C118.957 58.88 117.797 59.7333 116.411 60.32C115.024 60.9067 113.491 61.2 111.811 61.2C109.651 61.2 107.731 60.7467 106.051 59.84C104.371 58.9067 103.064 57.6267 102.131 56C101.197 54.3733 100.731 52.5333 100.731 50.48C100.731 48.4267 101.171 46.5867 102.051 44.96C102.957 43.3333 104.197 42.0667 105.771 41.16C107.344 40.2533 109.131 39.8 111.131 39.8C112.997 39.8 114.677 40.2267 116.171 41.08C117.691 41.9333 118.891 43.12 119.771 44.64C120.677 46.16 121.157 47.8933 121.211 49.84L103.931 53.2C104.464 54.9067 105.424 56.2533 106.811 57.24C108.224 58.2 109.904 58.68 111.851 58.68ZM111.131 42.24C109.664 42.24 108.344 42.5867 107.171 43.28C106.024 43.9467 105.117 44.8933 104.451 46.12C103.811 47.32 103.491 48.7067 103.491 50.28C103.491 50.68 103.504 50.9733 103.531 51.16L118.371 48.28C118.051 46.52 117.237 45.08 115.931 43.96C114.624 42.8133 113.024 42.24 111.131 42.24ZM132.911 61.2C131.018 61.2 129.551 60.6667 128.511 59.6C127.498 58.5333 126.991 57.0533 126.991 55.16V31.32H129.831V54.92C129.831 56.1733 130.125 57.1333 130.711 57.8C131.298 58.44 132.178 58.76 133.351 58.76C134.098 58.76 134.738 58.64 135.271 58.4L135.471 60.76C134.645 61.0533 133.791 61.2 132.911 61.2ZM147.544 61.2C145.518 61.2 143.691 60.7467 142.064 59.84C140.438 58.9067 139.158 57.6267 138.224 56C137.291 54.3733 136.824 52.5333 136.824 50.48C136.824 48.4267 137.291 46.5867 138.224 44.96C139.158 43.3333 140.438 42.0667 142.064 41.16C143.691 40.2533 145.518 39.8 147.544 39.8C149.571 39.8 151.398 40.2533 153.024 41.16C154.651 42.0667 155.918 43.3333 156.824 44.96C157.758 46.5867 158.224 48.4267 158.224 50.48C158.224 52.5333 157.758 54.3733 156.824 56C155.918 57.6267 154.651 58.9067 153.024 59.84C151.398 60.7467 149.571 61.2 147.544 61.2ZM147.544 58.68C149.038 58.68 150.371 58.3467 151.544 57.68C152.744 56.9867 153.678 56.0133 154.344 54.76C155.011 53.5067 155.344 52.08 155.344 50.48C155.344 48.88 155.011 47.4533 154.344 46.2C153.678 44.9467 152.744 43.9867 151.544 43.32C150.371 42.6267 149.038 42.28 147.544 42.28C146.051 42.28 144.704 42.6267 143.504 43.32C142.331 43.9867 141.398 44.9467 140.704 46.2C140.038 47.4533 139.704 48.88 139.704 50.48C139.704 52.08 140.038 53.5067 140.704 54.76C141.398 56.0133 142.331 56.9867 143.504 57.68C144.704 58.3467 146.051 58.68 147.544 58.68ZM174.863 39.8C176.836 39.8 178.623 40.2533 180.223 41.16C181.823 42.04 183.076 43.2933 183.983 44.92C184.889 46.5467 185.343 48.4 185.343 50.48C185.343 52.5867 184.889 54.4533 183.983 56.08C183.076 57.7067 181.823 58.9733 180.223 59.88C178.649 60.76 176.863 61.2 174.863 61.2C173.156 61.2 171.609 60.8533 170.223 60.16C168.863 59.44 167.743 58.4 166.863 57.04V68.76H164.023V39.96H166.743V44.12C167.596 42.7333 168.716 41.6667 170.103 40.92C171.516 40.1733 173.103 39.8 174.863 39.8ZM174.663 58.68C176.129 58.68 177.463 58.3467 178.663 57.68C179.863 56.9867 180.796 56.0133 181.463 54.76C182.156 53.5067 182.503 52.08 182.503 50.48C182.503 48.88 182.156 47.4667 181.463 46.24C180.796 44.9867 179.863 44.0133 178.663 43.32C177.463 42.6267 176.129 42.28 174.663 42.28C173.169 42.28 171.823 42.6267 170.622 43.32C169.449 44.0133 168.516 44.9867 167.823 46.24C167.156 47.4667 166.823 48.88 166.823 50.48C166.823 52.08 167.156 53.5067 167.823 54.76C168.516 56.0133 169.449 56.9867 170.622 57.68C171.823 58.3467 173.169 58.68 174.663 58.68ZM217.372 39.8C220.012 39.8 222.079 40.56 223.572 42.08C225.092 43.6 225.852 45.84 225.852 48.8V61H223.012V49.08C223.012 46.8933 222.479 45.2267 221.412 44.08C220.372 42.9333 218.892 42.36 216.972 42.36C214.785 42.36 213.065 43.04 211.812 44.4C210.559 45.7333 209.932 47.5867 209.932 49.96V61H207.092V49.08C207.092 46.8933 206.559 45.2267 205.492 44.08C204.452 42.9333 202.959 42.36 201.012 42.36C198.852 42.36 197.132 43.04 195.852 44.4C194.599 45.7333 193.972 47.5867 193.972 49.96V61H191.132V39.96H193.852V43.8C194.599 42.52 195.639 41.5333 196.972 40.84C198.305 40.1467 199.839 39.8 201.572 39.8C203.332 39.8 204.852 40.1733 206.132 40.92C207.439 41.6667 208.412 42.7733 209.052 44.24C209.825 42.8533 210.932 41.7733 212.372 41C213.839 40.2 215.505 39.8 217.372 39.8ZM242.632 58.68C243.939 58.68 245.139 58.4533 246.232 58C247.352 57.52 248.299 56.8267 249.072 55.92L250.672 57.76C249.739 58.88 248.579 59.7333 247.192 60.32C245.805 60.9067 244.272 61.2 242.592 61.2C240.432 61.2 238.512 60.7467 236.832 59.84C235.152 58.9067 233.845 57.6267 232.912 56C231.979 54.3733 231.512 52.5333 231.512 50.48C231.512 48.4267 231.952 46.5867 232.832 44.96C233.739 43.3333 234.979 42.0667 236.552 41.16C238.125 40.2533 239.912 39.8 241.912 39.8C243.779 39.8 245.459 40.2267 246.952 41.08C248.472 41.9333 249.672 43.12 250.552 44.64C251.459 46.16 251.939 47.8933 251.992 49.84L234.712 53.2C235.245 54.9067 236.205 56.2533 237.592 57.24C239.005 58.2 240.685 58.68 242.632 58.68ZM241.912 42.24C240.445 42.24 239.125 42.5867 237.952 43.28C236.805 43.9467 235.899 44.8933 235.232 46.12C234.592 47.32 234.272 48.7067 234.272 50.28C234.272 50.68 234.285 50.9733 234.312 51.16L249.152 48.28C248.832 46.52 248.019 45.08 246.712 43.96C245.405 42.8133 243.805 42.24 241.912 42.24ZM268.493 39.8C271.133 39.8 273.226 40.5733 274.773 42.12C276.346 43.64 277.133 45.8667 277.133 48.8V61H274.293V49.08C274.293 46.8933 273.746 45.2267 272.653 44.08C271.559 42.9333 269.999 42.36 267.973 42.36C265.706 42.36 263.906 43.04 262.573 44.4C261.266 45.7333 260.613 47.5867 260.613 49.96V61H257.773V39.96H260.493V43.84C261.266 42.56 262.333 41.5733 263.693 40.88C265.079 40.16 266.679 39.8 268.493 39.8ZM295.203 59.72C294.669 60.2 294.016 60.5733 293.243 60.84C292.469 61.08 291.656 61.2 290.803 61.2C288.829 61.2 287.309 60.6667 286.243 59.6C285.176 58.5333 284.643 57.0267 284.643 55.08V35.36H287.483V39.96H293.843V42.36H287.483V54.92C287.483 56.1733 287.789 57.1333 288.403 57.8C289.016 58.44 289.909 58.76 291.083 58.76C292.363 58.76 293.403 58.4 294.203 57.68L295.203 59.72ZM313.111 61.24C310.337 61.24 307.831 60.6267 305.591 59.4C303.377 58.1733 301.631 56.48 300.351 54.32C299.097 52.1333 298.471 49.6933 298.471 47C298.471 44.3067 299.097 41.88 300.351 39.72C301.631 37.5333 303.391 35.8267 305.631 34.6C307.871 33.3733 310.377 32.76 313.151 32.76C315.231 32.76 317.151 33.1067 318.911 33.8C320.671 34.4933 322.164 35.5067 323.391 36.84L321.511 38.72C319.324 36.5067 316.564 35.4 313.231 35.4C311.017 35.4 309.004 35.9067 307.191 36.92C305.377 37.9333 303.951 39.32 302.911 41.08C301.897 42.84 301.391 44.8133 301.391 47C301.391 49.1867 301.897 51.16 302.911 52.92C303.951 54.68 305.377 56.0667 307.191 57.08C309.004 58.0933 311.017 58.6 313.231 58.6C316.591 58.6 319.351 57.48 321.511 55.24L323.391 57.12C322.164 58.4533 320.657 59.48 318.871 60.2C317.111 60.8933 315.191 61.24 313.111 61.24ZM337.264 61.24C335.184 61.24 333.184 60.9067 331.264 60.24C329.371 59.5733 327.904 58.6933 326.864 57.6L328.024 55.32C329.038 56.3333 330.384 57.16 332.064 57.8C333.744 58.4133 335.478 58.72 337.264 58.72C339.771 58.72 341.651 58.2667 342.904 57.36C344.158 56.4267 344.784 55.2267 344.784 53.76C344.784 52.64 344.438 51.7467 343.744 51.08C343.078 50.4133 342.251 49.9067 341.264 49.56C340.278 49.1867 338.904 48.7867 337.144 48.36C335.038 47.8267 333.358 47.32 332.104 46.84C330.851 46.3333 329.771 45.5733 328.864 44.56C327.984 43.5467 327.544 42.1733 327.544 40.44C327.544 39.0267 327.918 37.7467 328.664 36.6C329.411 35.4267 330.558 34.4933 332.104 33.8C333.651 33.1067 335.571 32.76 337.864 32.76C339.464 32.76 341.024 32.9867 342.544 33.44C344.091 33.8667 345.424 34.4667 346.544 35.24L345.544 37.6C344.371 36.8267 343.118 36.2533 341.784 35.88C340.451 35.48 339.144 35.28 337.864 35.28C335.411 35.28 333.558 35.76 332.304 36.72C331.078 37.6533 330.464 38.8667 330.464 40.36C330.464 41.48 330.798 42.3867 331.464 43.08C332.158 43.7467 333.011 44.2667 334.024 44.64C335.064 44.9867 336.451 45.3733 338.184 45.8C340.238 46.3067 341.891 46.8133 343.144 47.32C344.424 47.8 345.504 48.5467 346.384 49.56C347.264 50.5467 347.704 51.8933 347.704 53.6C347.704 55.0133 347.318 56.3067 346.544 57.48C345.798 58.6267 344.638 59.5467 343.064 60.24C341.491 60.9067 339.558 61.24 337.264 61.24Z" fill="white"/>
<path fill-rule="evenodd" clip-rule="evenodd" d="M2 2H234V20H236V2V0H234H2H0V2V93V95H2H234H236V93V74H234V93H2V2Z" fill="white"/>
</svg>
